<svg id="Capa_1" enable-background="new 0 0 512 512" height="512" viewBox="0 0 512 512" width="512" xmlns="http://www.w3.org/2000/svg"><g><g><path d="m511.995 235.705c-.032-2.437-1.423-5.368-4.239-6.661l-140.41-67.67c-3.73-1.798-8.214-.232-10.012 3.5-1.799 3.731-.231 8.214 3.5 10.012l110.829 53.414h-214.878c-3.569-20.627-21.581-36.369-43.212-36.369s-39.643 15.742-43.212 36.369h-155.181c1.351-28.194 10.313-55.242 26.125-78.651 2.318-3.433 1.416-8.095-2.017-10.413-3.434-2.318-8.095-1.416-10.413 2.017-18.891 27.966-28.875 60.66-28.875 94.547v202.03c0 4.143 3.357 7.5 7.5 7.5h66.95c4.143 0 7.5-3.357 7.5-7.5s-3.357-7.5-7.5-7.5h-59.45v-187.03h155.362c3.571 20.624 21.582 36.363 43.211 36.363s39.64-15.739 43.211-36.363h240.216v80.18c-5.128-3.45-11.231-5.461-17.773-5.461-.096 0-.193 0-.289.001-8.812.08-17.047 3.731-23.184 10.283-6.047 6.454-9.331 14.968-9.25 23.972.081 9.005 3.52 17.457 9.682 23.801 6.187 6.368 14.369 9.864 23.072 9.864.098 0 .196 0 .294-.001 6.432-.059 12.413-2.055 17.448-5.437v49.829h-61.242c-3.69-28.456-28.083-50.51-57.527-50.51-29.445 0-53.837 22.054-57.528 50.51h-47.755c-3.57-20.625-21.582-36.366-43.212-36.366s-39.641 15.741-43.211 36.366h-76.975c-4.143 0-7.5 3.357-7.5 7.5s3.357 7.5 7.5 7.5h218.17c4.143 0 7.5-3.357 7.5-7.5 0-23.716 19.295-43.01 43.011-43.01s43.01 19.294 43.01 43.01c0 4.143 3.357 7.5 7.5 7.5h75.76c4.143 0 7.5-3.357 7.5-7.5v-202.031c-.001-.032-.005-.063-.006-.095zm-298.422 28.958c-15.903 0-28.843-12.927-28.865-28.826 0-.013.002-.025.002-.038s-.002-.026-.002-.04c.02-15.9 12.961-28.83 28.865-28.83 15.917 0 28.866 12.949 28.866 28.866s-12.949 28.868-28.866 28.868zm265.843 106.275c-.052.001-.103.001-.153.001-4.615 0-8.984-1.884-12.317-5.315-3.463-3.564-5.396-8.354-5.441-13.485-.047-5.131 1.799-9.953 5.196-13.581 3.307-3.529 7.7-5.496 12.372-5.538.052-.001.102-.001.152-.001 9.713 0 17.667 8.4 17.761 18.799.094 10.455-7.788 19.032-17.57 19.12zm-249.681 38.026c13.323 0 24.562 9.075 27.872 21.366h-55.744c3.312-12.291 14.55-21.366 27.872-21.366z"/><path d="m62.9 124.124c28.366-26.987 65.43-42.022 104.535-42.445l45.73 22.046c-1.359 4.474-2.046 9.121-2.046 13.886 0 26.412 21.492 47.899 47.91 47.899 15.79 0 30.566-7.927 39.423-20.692l30.751 14.819c3.73 1.798 8.214.231 10.013-3.501 1.798-3.731.23-8.214-3.501-10.013l-36.979-17.82c-1.795-.865-3.859-.979-5.738-.32-1.88.659-3.42 2.039-4.28 3.835-5.444 11.355-17.098 18.692-29.688 18.692-18.146 0-32.91-14.759-32.91-32.899 0-5.023 1.108-9.853 3.296-14.352.871-1.793.992-3.858.338-5.741s-2.031-3.428-3.827-4.293l-53.54-25.811c-1.016-.49-2.129-.744-3.257-.744-43.595 0-84.993 16.545-116.569 46.587-3.001 2.855-3.119 7.603-.264 10.604 2.855 2.999 7.603 3.118 10.603.263z"/><path d="m112.78 119.158c-15.425 12.304-18.328 34.407-6.473 49.271 6.66 8.349 16.58 12.664 26.731 12.664 7.922 0 15.985-2.629 22.746-8.021 15.425-12.305 18.329-34.407 6.473-49.271-11.857-14.866-34.053-16.947-49.477-4.643zm33.652 42.187c-8.959 7.146-21.698 6.127-28.397-2.27-6.698-8.397-4.859-21.044 4.1-28.19 4.008-3.197 8.771-4.76 13.412-4.76 5.734 0 11.283 2.388 14.985 7.028 6.697 8.399 4.859 21.045-4.1 28.192z"/><path d="m375.628 318.63c0-21.687-19.603-46.896-44.876-46.896s-44.876 25.21-44.876 46.896c0 21.96 20.131 39.825 44.876 39.825s44.876-17.865 44.876-39.825zm-74.752 0c0-14.358 13.786-31.896 29.876-31.896s29.876 17.538 29.876 31.896c0 13.688-13.402 24.825-29.876 24.825s-29.876-11.137-29.876-24.825z"/><path d="m129.492 312.927c-7.641-7.642-18.08-11.487-29.438-10.815-11.01.647-21.571 5.503-29.739 13.672-8.17 8.169-13.025 18.73-13.673 29.74-.667 11.342 3.174 21.797 10.814 29.438 7.272 7.271 16.961 10.856 26.965 10.856 11.357 0 23.121-4.621 32.215-13.714 17.102-17.103 18.384-43.65 2.856-59.177zm-13.464 48.57c-11.254 11.255-28.286 12.539-37.965 2.857-4.57-4.569-6.86-10.944-6.448-17.95.433-7.338 3.736-14.446 9.306-20.015 5.567-5.568 12.676-8.872 20.015-9.305.537-.031 1.07-.047 1.601-.047 6.372 0 12.131 2.275 16.349 6.495 9.678 9.68 8.397 26.711-2.858 37.965z"/></g></g></svg>