<svg xmlns="http://www.w3.org/2000/svg" width="118.2" height="45" viewBox="0 0 118.2 45">
  <title>feed</title>
  <g>
    <path d="M35.3,25h-6V31.3a2.3,2.3,0,0,1-.69,1.75,2.5,2.5,0,0,1-1.78.66,2.42,2.42,0,0,1-1.76-.66,2.33,2.33,0,0,1-.68-1.75V13.7a2.27,2.27,0,0,1,2.4-2.41h9.48a2.06,2.06,0,0,1,1.56.63,2.19,2.19,0,0,1,.61,1.61,2.07,2.07,0,0,1-.61,1.57,2.1,2.1,0,0,1-1.56.59h-7v5h6a2.12,2.12,0,0,1,1.56.62,2.25,2.25,0,0,1,.61,1.61,2.13,2.13,0,0,1-.61,1.58A2.18,2.18,0,0,1,35.3,25Z"/>
    <path d="M52.67,24.43h-6v4.71H54a2.07,2.07,0,0,1,1.55.61,2.12,2.12,0,0,1,.61,1.59,2.15,2.15,0,0,1-.61,1.59,2.11,2.11,0,0,1-1.55.61H44.17a2.27,2.27,0,0,1-2.4-2.41V13.7a2.27,2.27,0,0,1,2.4-2.41h9.48a2.14,2.14,0,0,1,1.56.6,2.11,2.11,0,0,1,.61,1.57,2.24,2.24,0,0,1-.61,1.61,2.08,2.08,0,0,1-1.56.62h-7V20.1h6a2,2,0,0,1,1.54.61,2.18,2.18,0,0,1,.59,1.59,2.11,2.11,0,0,1-.58,1.54A2.07,2.07,0,0,1,52.67,24.43Z"/>
    <path d="M70.58,24.43h-6v4.71H71.9a2.11,2.11,0,0,1,1.56.61,2.15,2.15,0,0,1,.6,1.59,2.18,2.18,0,0,1-.6,1.59,2.15,2.15,0,0,1-1.56.61H62.08a2.27,2.27,0,0,1-2.4-2.41V13.7a2.27,2.27,0,0,1,2.4-2.41h9.48a2.14,2.14,0,0,1,1.56.6,2.11,2.11,0,0,1,.61,1.57,2.24,2.24,0,0,1-.61,1.61,2.08,2.08,0,0,1-1.56.62h-7V20.1h6a2,2,0,0,1,1.54.61,2.18,2.18,0,0,1,.59,1.59,2.11,2.11,0,0,1-.58,1.54A2.07,2.07,0,0,1,70.58,24.43Z"/>
    <path d="M85.54,11.29a8.4,8.4,0,0,1,6.06,2.07A7.42,7.42,0,0,1,93.77,19v6.81a7.41,7.41,0,0,1-2.17,5.65,8.4,8.4,0,0,1-6.06,2.07H80a2.27,2.27,0,0,1-2.4-2.41V13.7A2.27,2.27,0,0,1,80,11.29Zm0,4.4H82.49V29.14h3.05a3.26,3.26,0,0,0,2.46-.9,3.51,3.51,0,0,0,.86-2.52V19.11A3.51,3.51,0,0,0,88,16.59,3.26,3.26,0,0,0,85.54,15.69Z"/>
  </g>
</svg>
