<svg height="512pt" viewBox="-14 0 512 512" width="512pt" xmlns="http://www.w3.org/2000/svg"><path d="m461.660156 283.378906-68.324218 39.445313-43.898438-25.34375 51.929688-29.980469c4.660156-2.691406 7.53125-7.660156 7.53125-13.042969 0-5.378906-2.871094-10.351562-7.53125-13.039062l-54.601563-31.527344 46.566406-26.886719 68.328125 39.449219c2.371094 1.371094 4.960938 2.019531 7.515625 2.019531 5.207031 0 10.265625-2.699218 13.054688-7.53125 4.160156-7.203125 1.691406-16.414062-5.511719-20.570312l-53.265625-30.753906 37.535156-21.675782c7.203125-4.15625 9.671875-13.367187 5.511719-20.570312-4.15625-7.203125-13.367188-9.671875-20.570312-5.507813l-37.539063 21.667969v-61.507812c0-8.316407-6.742187-15.058594-15.058594-15.058594-8.316406 0-15.058593 6.742187-15.058593 15.058594v78.898437l-45.230469 26.113281v-59.964844c0-5.378906-2.871094-10.351562-7.53125-13.042968-4.660157-2.6875-10.398438-2.6875-15.058594 0l-53.269531 30.753906v-53.773438l68.328125-39.449218c7.203125-4.15625 9.671875-13.367188 5.511719-20.570313-4.160157-7.203125-13.367188-9.667969-20.570313-5.511719l-53.269531 30.753907v-37.171875c0-8.316406-6.742188-15.058594-15.058594-15.058594s-15.058594 6.742188-15.058594 15.058594v37.171875l-53.269531-30.753907c-7.199219-4.160156-16.414063-1.691406-20.570313 5.511719s-1.691406 16.414063 5.511719 20.570313l68.328125 39.449218v53.773438l-53.269531-30.753906c-4.65625-2.691406-10.398437-2.691406-15.058594 0-4.660156 2.691406-7.527343 7.660156-7.527343 13.042968v59.964844l-45.234376-26.117187v-78.894531c0-8.316407-6.742187-15.058594-15.058593-15.058594-8.316407 0-15.058594 6.742187-15.058594 15.058594v61.507812l-32.195313-18.585938c-7.203124-4.160156-16.410156-1.691406-20.570312 5.511719-4.15625 7.203125-1.6875 16.414063 5.511719 20.570313l32.195312 18.585937-53.269531 30.753907c-7.203125 4.160156-9.667969 13.367187-5.511719 20.570312 2.789063 4.832031 7.851563 7.535156 13.054688 7.535156 2.554687 0 5.144531-.652344 7.515625-2.023437l68.328125-39.449219 46.570312 26.890625-54.605469 31.523437c-4.660156 2.691407-7.53125 7.660157-7.53125 13.042969 0 5.378907 2.871094 10.351563 7.53125 13.039063l51.933594 29.984375-43.898437 25.34375-68.328125-39.449219c-7.203125-4.160156-16.414063-1.691406-20.570313 5.511719s-1.691406 16.414062 5.511719 20.570312l53.269531 30.753907-32.195312 18.585937c-7.199219 4.160156-9.667969 13.367187-5.511719 20.570313 2.789062 4.832031 7.851562 7.535156 13.054688 7.535156 2.554687 0 5.144531-.652344 7.515624-2.023438l32.195313-18.585937v61.511719c0 8.316406 6.742187 15.058593 15.058594 15.058593 8.316406 0 15.058593-6.742187 15.058593-15.058593v-78.898438l45.234376-26.117188v63.054688c0 5.378906 2.867187 10.351562 7.527343 13.039062 4.660157 2.691407 10.402344 2.691407 15.058594 0l53.269531-30.75v50.6875l-68.328125 39.449219c-7.203125 4.15625-9.667969 13.367188-5.511719 20.570313 4.160157 7.203125 13.371094 9.671875 20.570313 5.511718l53.269531-30.753906v43.34375c0 8.316406 6.742188 15.058594 15.058594 15.058594s15.058594-6.742188 15.058594-15.058594v-43.34375l53.269531 30.753906c2.371094 1.371094 4.960937 2.019532 7.515625 2.019532 5.203125 0 10.265625-2.699219 13.054688-7.53125 4.160156-7.203125 1.691406-16.414063-5.511719-20.570313l-68.328125-39.449219v-50.6875l53.269531 30.753907c2.328125 1.34375 4.929687 2.019531 7.53125 2.019531 2.597656 0 5.199219-.675781 7.527344-2.019531 4.660156-2.691407 7.53125-7.660157 7.53125-13.039063v-63.054687l45.234375 26.117187v78.898438c0 8.316406 6.742187 15.058594 15.058594 15.058594 8.316406 0 15.058593-6.742188 15.058593-15.058594v-61.511719l37.535157 21.671875c2.371093 1.371094 4.960937 2.023438 7.515624 2.023438 5.207032 0 10.265626-2.703126 13.054688-7.535157 4.160156-7.203125 1.691406-16.414062-5.511719-20.570312l-37.535156-21.671875 53.269531-30.753906c7.203125-4.15625 9.667969-13.367188 5.511719-20.570313-4.160156-7.207031-13.371094-9.671875-20.574219-5.511719zm-97.9375-28.921875-44.402344 25.636719-47.078124-27.179688 44.40625-25.636718zm-60.800781-105.304687v51.273437l-45.738281 26.40625v-51.273437zm-121.59375 0 45.738281 26.40625v51.273437l-45.738281-26.40625zm-60.796875 105.304687 47.074219-27.179687 44.402343 25.636718-47.074218 27.179688zm60.796875 105.304688v-54.359375l45.738281-26.40625v54.359375zm121.59375 0-45.738281-26.40625v-54.359375l45.742187 26.40625v54.359375zm0 0"/></svg>